<svg xmlns="http://www.w3.org/2000/svg" viewBox="0 0 500 500" fill="currentColor">
  <g transform="translate(0,500) scale(0.1,-0.1)">
    <path d="M2295 4255 c-250 -29 -460 -93 -690 -210 -204 -104 -316 -185 -485 -355 -156 -155 -245 -271 -332 -432 l-53 -97 -50 -1 c-231 -2 -440 -156 -507 -374 -21 -68 -22 -87 -22 -476 0 -363 1 -411 18 -465 46 -151 138 -261 276 -331 74 -37 104 -45 200 -52 l85 -7 35 -67 c19 -37 46 -78 59 -92 48 -51 140 -46 196 10 54 54 50 92 -29 253 -80 166 -130 316 -157 473 -19 107 -21 149 -16 318 6 213 21 308 78 479 187 572 667 1001 1263 1129 108 23 144 26 331 26 182 0 225 -3 320 -23 586 -123 1040 -504 1253 -1051 75 -193 112 -388 112 -595 0 -287 -55 -512 -190 -780 -142 -282 -297 -444 -479 -502 -48 -16 -96 -18 -348 -18 l-292 0 -38 36 c-73 71 -85 74 -309 77 -224 4 -258 -1 -330 -52 -59 -40 -96 -106 -102 -179 -5 -64 23 -112 83 -142 38 -19 63 -20 590 -23 356 -2 589 1 660 8 190 19 336 82 481 208 128 111 200 206 298 398 l57 111 87 6 c226 13 417 167 473 380 17 63 19 113 19 466 0 448 -4 481 -70 592 -93 157 -286 267 -454 258 -35 -2 -52 1 -58 11 -4 8 -33 59 -63 114 -298 534 -854 896 -1490 971 -152 17 -259 17 -410 0z"/>
    <path d="M1564 3240 c-103 -21 -212 -108 -262 -210 l-27 -55 0 -505 0 -505 29 -56 c57 -114 157 -189 277 -209 87 -14 1751 -14 1838 0 77 13 129 38 188 93 55 51 84 95 107 163 15 45 16 103 14 530 l-3 479 -32 65 c-41 83 -100 142 -182 183 l-66 32 -920 2 c-506 0 -939 -3 -961 -7z m354 -544 c86 -44 136 -128 136 -226 0 -85 -27 -145 -85 -191 -61 -49 -90 -59 -165 -59 -79 0 -120 16 -173 69 -54 54 -74 102 -74 181 -1 106 61 195 161 233 56 21 152 18 200 -7z m1372 3 c101 -45 150 -121 150 -229 0 -81 -14 -116 -69 -173 -55 -59 -98 -77 -181 -77 -81 0 -126 18 -176 72 -54 57 -69 95 -68 178 0 64 4 82 27 122 66 110 206 158 317 107z"/>
  </g>
</svg>
